<svg width="180" height="180" viewBox="0 0 180 180" xmlns="http://www.w3.org/2000/svg">
  <defs>
    <linearGradient id="bgGradient" x1="0%" y1="0%" x2="100%" y2="100%">
      <stop offset="0%" style="stop-color:#4F46E5;stop-opacity:1" />
      <stop offset="100%" style="stop-color:#7C3AED;stop-opacity:1" />
    </linearGradient>
  </defs>
  
  <!-- Background with rounded corners for iOS -->
  <rect x="0" y="0" width="180" height="180" rx="40" fill="url(#bgGradient)"/>
  
  <!-- Camera body -->
  <rect x="35" y="55" width="110" height="78" rx="12" fill="#F8FAFC" stroke="#475569" stroke-width="2"/>
  
  <!-- Camera lens -->
  <circle cx="90" cy="94" r="24" fill="#1E293B"/>
  <circle cx="90" cy="94" r="17" fill="#0F172A"/>
  <circle cx="90" cy="94" r="9" fill="#334155"/>
  
  <!-- Flash -->
  <rect x="125" y="65" width="12" height="8" rx="2" fill="#EF4444"/>
  
  <!-- Barcode lines -->
  <g transform="translate(45, 25)">
    <rect x="0" y="0" width="2" height="15" fill="#FFFFFF"/>
    <rect x="4" y="0" width="1" height="15" fill="#FFFFFF"/>
    <rect x="7" y="0" width="3" height="15" fill="#FFFFFF"/>
    <rect x="12" y="0" width="1" height="15" fill="#FFFFFF"/>
    <rect x="15" y="0" width="2" height="15" fill="#FFFFFF"/>
    <rect x="19" y="0" width="1" height="15" fill="#FFFFFF"/>
    <rect x="22" y="0" width="4" height="15" fill="#FFFFFF"/>
    <rect x="28" y="0" width="1" height="15" fill="#FFFFFF"/>
    <rect x="31" y="0" width="2" height="15" fill="#FFFFFF"/>
    <rect x="35" y="0" width="1" height="15" fill="#FFFFFF"/>
    <rect x="38" y="0" width="3" height="15" fill="#FFFFFF"/>
    <rect x="43" y="0" width="1" height="15" fill="#FFFFFF"/>
    <rect x="46" y="0" width="2" height="15" fill="#FFFFFF"/>
    <rect x="50" y="0" width="1" height="15" fill="#FFFFFF"/>
    <rect x="53" y="0" width="4" height="15" fill="#FFFFFF"/>
    <rect x="59" y="0" width="1" height="15" fill="#FFFFFF"/>
    <rect x="62" y="0" width="2" height="15" fill="#FFFFFF"/>
    <rect x="66" y="0" width="1" height="15" fill="#FFFFFF"/>
    <rect x="69" y="0" width="3" height="15" fill="#FFFFFF"/>
    <rect x="74" y="0" width="1" height="15" fill="#FFFFFF"/>
    <rect x="77" y="0" width="2" height="15" fill="#FFFFFF"/>
    <rect x="81" y="0" width="1" height="15" fill="#FFFFFF"/>
    <rect x="84" y="0" width="4" height="15" fill="#FFFFFF"/>
    <rect x="90" y="0" width="1" height="15" fill="#FFFFFF"/>
  </g>
  
  <!-- Photo stack -->
  <g transform="translate(20, 145)">
    <rect x="4" y="4" width="20" height="15" rx="2" fill="#64748B"/>
    <rect x="2" y="2" width="20" height="15" rx="2" fill="#94A3B8"/>
    <rect x="0" y="0" width="20" height="15" rx="2" fill="#F1F5F9" stroke="#94A3B8" stroke-width="1"/>
    <circle cx="10" cy="7.5" r="3" fill="#10B981"/>
  </g>
  
  <!-- SN label -->
  <g transform="translate(135, 145)">
    <rect x="2" y="2" width="25" height="12" rx="2" fill="#94A3B8"/>
    <rect x="0" y="0" width="25" height="12" rx="2" fill="#F8FAFC" stroke="#94A3B8" stroke-width="1"/>
    <rect x="3" y="3" width="10" height="1" fill="#475569"/>
    <rect x="3" y="5" width="15" height="1" fill="#475569"/>
    <rect x="3" y="7" width="8" height="1" fill="#475569"/>
  </g>
  
  <!-- Scanning lines -->
  <g opacity="0.7">
    <rect x="66" y="84" width="48" height="1" fill="#10B981"/>
    <rect x="66" y="94" width="48" height="1" fill="#10B981"/>
    <rect x="66" y="104" width="48" height="1" fill="#10B981"/>
  </g>
</svg>