<svg width="32" height="32" viewBox="0 0 32 32" xmlns="http://www.w3.org/2000/svg">
  <defs>
    <linearGradient id="bgGradient" x1="0%" y1="0%" x2="100%" y2="100%">
      <stop offset="0%" style="stop-color:#4F46E5;stop-opacity:1" />
      <stop offset="100%" style="stop-color:#7C3AED;stop-opacity:1" />
    </linearGradient>
  </defs>
  
  <!-- Background -->
  <circle cx="16" cy="16" r="14" fill="url(#bgGradient)"/>
  
  <!-- Camera body -->
  <rect x="6" y="10" width="20" height="14" rx="2" fill="#F8FAFC" stroke="#475569" stroke-width="0.5"/>
  
  <!-- Camera lens -->
  <circle cx="16" cy="17" r="4" fill="#1E293B"/>
  <circle cx="16" cy="17" r="2.5" fill="#334155"/>
  
  <!-- Flash -->
  <rect x="22" y="12" width="2" height="1.5" rx="0.5" fill="#EF4444"/>
  
  <!-- Barcode lines (simplified) -->
  <g transform="translate(8, 4)">
    <rect x="0" y="0" width="0.5" height="3" fill="#FFFFFF"/>
    <rect x="1" y="0" width="0.5" height="3" fill="#FFFFFF"/>
    <rect x="2.5" y="0" width="1" height="3" fill="#FFFFFF"/>
    <rect x="4" y="0" width="0.5" height="3" fill="#FFFFFF"/>
    <rect x="5" y="0" width="0.5" height="3" fill="#FFFFFF"/>
    <rect x="6.5" y="0" width="1" height="3" fill="#FFFFFF"/>
    <rect x="8" y="0" width="0.5" height="3" fill="#FFFFFF"/>
    <rect x="9.5" y="0" width="1" height="3" fill="#FFFFFF"/>
    <rect x="11" y="0" width="0.5" height="3" fill="#FFFFFF"/>
    <rect x="12" y="0" width="0.5" height="3" fill="#FFFFFF"/>
    <rect x="13.5" y="0" width="1" height="3" fill="#FFFFFF"/>
    <rect x="15" y="0" width="0.5" height="3" fill="#FFFFFF"/>
  </g>
  
  <!-- Photo indicator -->
  <rect x="4" y="26" width="4" height="3" rx="0.5" fill="#F1F5F9" stroke="#94A3B8" stroke-width="0.3"/>
  <circle cx="6" cy="27.5" r="0.8" fill="#10B981"/>
  
  <!-- SN label indicator -->
  <rect x="24" y="26" width="4" height="2" rx="0.5" fill="#F8FAFC" stroke="#94A3B8" stroke-width="0.3"/>
  <rect x="25" y="27" width="2" height="0.3" fill="#475569"/>
  
  <!-- Scanning line -->
  <rect x="12" y="17" width="8" height="0.3" fill="#10B981" opacity="0.8"/>
</svg>