<svg width="512" height="512" viewBox="0 0 512 512" xmlns="http://www.w3.org/2000/svg">
  <!-- Background circle with gradient -->
  <defs>
    <linearGradient id="bgGradient" x1="0%" y1="0%" x2="100%" y2="100%">
      <stop offset="0%" style="stop-color:#4F46E5;stop-opacity:1" />
      <stop offset="100%" style="stop-color:#7C3AED;stop-opacity:1" />
    </linearGradient>
    <linearGradient id="cameraGradient" x1="0%" y1="0%" x2="100%" y2="100%">
      <stop offset="0%" style="stop-color:#F8FAFC;stop-opacity:1" />
      <stop offset="100%" style="stop-color:#E2E8F0;stop-opacity:1" />
    </linearGradient>
  </defs>
  
  <!-- Main background -->
  <circle cx="256" cy="256" r="240" fill="url(#bgGradient)" stroke="#1E293B" stroke-width="8"/>
  
  <!-- Camera body -->
  <rect x="140" y="180" width="232" height="160" rx="20" fill="url(#cameraGradient)" stroke="#475569" stroke-width="3"/>
  
  <!-- Camera lens -->
  <circle cx="256" cy="260" r="50" fill="#1E293B" stroke="#475569" stroke-width="3"/>
  <circle cx="256" cy="260" r="35" fill="#0F172A"/>
  <circle cx="256" cy="260" r="20" fill="#334155"/>
  
  <!-- Camera flash/viewfinder -->
  <rect x="320" y="195" width="25" height="15" rx="3" fill="#EF4444"/>
  
  <!-- Barcode lines integrated into design -->
  <g transform="translate(160, 120)">
    <!-- Barcode pattern on top -->
    <rect x="0" y="0" width="4" height="30" fill="#FFFFFF"/>
    <rect x="8" y="0" width="2" height="30" fill="#FFFFFF"/>
    <rect x="14" y="0" width="6" height="30" fill="#FFFFFF"/>
    <rect x="24" y="0" width="2" height="30" fill="#FFFFFF"/>
    <rect x="30" y="0" width="4" height="30" fill="#FFFFFF"/>
    <rect x="38" y="0" width="2" height="30" fill="#FFFFFF"/>
    <rect x="44" y="0" width="8" height="30" fill="#FFFFFF"/>
    <rect x="56" y="0" width="2" height="30" fill="#FFFFFF"/>
    <rect x="62" y="0" width="4" height="30" fill="#FFFFFF"/>
    <rect x="70" y="0" width="2" height="30" fill="#FFFFFF"/>
    <rect x="76" y="0" width="6" height="30" fill="#FFFFFF"/>
    <rect x="86" y="0" width="2" height="30" fill="#FFFFFF"/>
    <rect x="92" y="0" width="4" height="30" fill="#FFFFFF"/>
    <rect x="100" y="0" width="2" height="30" fill="#FFFFFF"/>
    <rect x="106" y="0" width="8" height="30" fill="#FFFFFF"/>
    <rect x="118" y="0" width="2" height="30" fill="#FFFFFF"/>
    <rect x="124" y="0" width="4" height="30" fill="#FFFFFF"/>
    <rect x="132" y="0" width="2" height="30" fill="#FFFFFF"/>
    <rect x="138" y="0" width="6" height="30" fill="#FFFFFF"/>
    <rect x="148" y="0" width="2" height="30" fill="#FFFFFF"/>
    <rect x="154" y="0" width="4" height="30" fill="#FFFFFF"/>
    <rect x="162" y="0" width="2" height="30" fill="#FFFFFF"/>
    <rect x="168" y="0" width="8" height="30" fill="#FFFFFF"/>
    <rect x="180" y="0" width="2" height="30" fill="#FFFFFF"/>
    <rect x="186" y="0" width="4" height="30" fill="#FFFFFF"/>
    <rect x="194" y="0" width="2" height="30" fill="#FFFFFF"/>
  </g>
  
  <!-- Photo frames to represent collection -->
  <g transform="translate(80, 360)">
    <!-- Back photo frame -->
    <rect x="8" y="8" width="40" height="30" rx="3" fill="#64748B" stroke="#475569" stroke-width="2"/>
    <!-- Middle photo frame -->
    <rect x="4" y="4" width="40" height="30" rx="3" fill="#94A3B8" stroke="#64748B" stroke-width="2"/>
    <!-- Front photo frame -->
    <rect x="0" y="0" width="40" height="30" rx="3" fill="#F1F5F9" stroke="#94A3B8" stroke-width="2"/>
    <!-- Photo content indicator -->
    <circle cx="20" cy="15" r="6" fill="#10B981"/>
  </g>
  
  <!-- SN label indicator -->
  <g transform="translate(350, 360)">
    <!-- Back label -->
    <rect x="8" y="8" width="50" height="20" rx="3" fill="#64748B"/>
    <!-- Middle label -->
    <rect x="4" y="4" width="50" height="20" rx="3" fill="#94A3B8"/>
    <!-- Front label -->
    <rect x="0" y="0" width="50" height="20" rx="3" fill="#F8FAFC" stroke="#94A3B8" stroke-width="1"/>
    <!-- SN text representation -->
    <rect x="6" y="6" width="20" height="2" fill="#475569"/>
    <rect x="6" y="10" width="30" height="2" fill="#475569"/>
    <rect x="6" y="14" width="15" height="2" fill="#475569"/>
  </g>
  
  <!-- Scanning beam effect -->
  <g opacity="0.7">
    <rect x="200" y="240" width="112" height="2" fill="#10B981"/>
    <rect x="200" y="260" width="112" height="2" fill="#10B981"/>
    <rect x="200" y="280" width="112" height="2" fill="#10B981"/>
  </g>
</svg>